<svg width="612" height="238" fill="none" xmlns="http://www.w3.org/2000/svg"><rect y="35" width="577" height="203" rx="101.5" fill="#5267DF"/><rect x="301" width="311" height="201" rx="5" fill="#E8EAF6"/><mask id="a" style="mask-type:luminance" maskUnits="userSpaceOnUse" x="301" y="0" width="311" height="201"><rect x="301" width="311" height="201" rx="5" fill="#fff"/></mask><g mask="url(#a)"><path fill="#242A45" d="M298.952.115h317.382V34.39H298.952z"/><ellipse opacity=".245" cx="323.321" cy="17.542" rx="9.284" ry="9.295" fill="#fff"/><ellipse opacity=".104" cx="590.804" cy="17.542" rx="9.284" ry="9.295" fill="#fff"/><rect opacity=".75" x="341.308" y="11.733" width="69.627" height="3.486" rx="1.743" fill="#fff"/><rect opacity=".25" x="341.308" y="19.866" width="37.134" height="3.486" rx="1.743" fill="#fff"/><rect x="334.073" y="54.026" width="151.438" height="183.572" rx="8" fill="#fff"/><rect x="505.239" y="54.026" width="74.269" height="183.572" rx="8" fill="#fff"/><rect opacity=".5" x="379.603" y="76.216" width="69.627" height="3.486" rx="1.743" fill="#242A45"/></g><ellipse cx="361.29" cy="82.043" rx="9.29" ry="9.257" fill="#F98E5D"/><rect opacity=".25" x="516.903" y="67" width="51.097" height="3.471" rx="1.736" fill="#242A45"/><rect opacity=".25" x="516.903" y="78.571" width="51.097" height="3.471" rx="1.736" fill="#242A45"/><rect opacity=".25" x="516.903" y="90.143" width="51.097" height="3.471" rx="1.736" fill="#242A45"/><rect opacity=".25" x="516.903" y="101.714" width="51.097" height="3.471" rx="1.736" fill="#242A45"/><rect opacity=".25" x="516.903" y="121.386" width="51.097" height="3.471" rx="1.736" fill="#242A45"/><rect opacity=".25" x="516.903" y="132.957" width="51.097" height="3.471" rx="1.736" fill="#242A45"/><rect opacity=".25" x="516.903" y="144.529" width="51.097" height="3.471" rx="1.736" fill="#242A45"/><rect opacity=".25" x="379.29" y="84.357" width="37.161" height="3.471" rx="1.736" fill="#242A45"/><ellipse cx="361.293" cy="114.5" rx="9.293" ry="9.5" fill="#6AC6D6"/><rect opacity=".5" x="379.299" y="108.562" width="69.701" height="3.563" rx="1.781" fill="#242A45"/><rect opacity=".25" x="379.299" y="116.875" width="37.174" height="3.563" rx="1.781" fill="#242A45"/><ellipse cx="361.293" cy="147.5" rx="9.293" ry="9.5" fill="#A47ED4"/><rect opacity=".5" x="379.299" y="141.562" width="69.701" height="3.563" rx="1.781" fill="#242A45"/><rect opacity=".25" x="379.299" y="149.875" width="37.174" height="3.563" rx="1.781" fill="#242A45"/><ellipse cx="361.293" cy="179.5" rx="9.293" ry="9.5" fill="#EC7878"/><rect opacity=".5" x="379.299" y="173.562" width="69.701" height="3.563" rx="1.781" fill="#242A45"/><rect opacity=".25" x="379.299" y="181.875" width="37.174" height="3.563" rx="1.781" fill="#242A45"/></svg>