<svg width="655" height="287" fill="none" xmlns="http://www.w3.org/2000/svg"><rect x="77.885" y="61.244" width="577" height="203" rx="101.5" fill="#5267DF"/><g filter="url(#a)"><rect x="40" y="10" width="310.769" height="206.488" rx="14" fill="#777"/></g><rect x="41.075" y="11.073" width="308.742" height="204.806" rx="13" fill="url(#b)"/><rect opacity=".1" x="69.05" y="18.744" width="253.488" height="189.731" rx="5" fill="#2A2A2A"/><rect x="51.307" y="20.353" width="288.187" height="185.571" rx="8" fill="#E8EAF6"/><mask id="c" style="mask-type:luminance" maskUnits="userSpaceOnUse" x="51" y="20" width="289" height="186"><rect x="51.307" y="20.353" width="288.187" height="185.571" rx="8" fill="#fff"/></mask><g mask="url(#c)"><path fill="#5267DF" d="M49.409 20.459H343.51v31.644H49.409z"/><ellipse opacity=".245" cx="71.991" cy="36.548" rx="8.603" ry="8.581" fill="#fff"/><ellipse opacity=".104" cx="319.853" cy="36.548" rx="8.603" ry="8.581" fill="#fff"/><rect opacity=".75" x="88.658" y="31.185" width="64.519" height="3.218" rx="1.609" fill="#fff"/><rect opacity=".25" x="88.658" y="38.694" width="34.41" height="3.218" rx="1.609" fill="#fff"/><rect x="81.954" y="70.232" width="140.33" height="169.481" rx="8" fill="#fff"/><rect x="240.564" y="70.232" width="68.821" height="169.481" rx="8" fill="#fff"/><rect opacity=".5" x="124.144" y="90.718" width="64.519" height="3.218" rx="1.609" fill="#242A45"/></g><ellipse cx="107.487" cy="95.172" rx="8.602" ry="8.571" fill="#F98E5D"/><rect opacity=".25" x="251.573" y="81.244" width="47.312" height="3.214" rx="1.607" fill="#242A45"/><rect opacity=".25" x="251.573" y="91.958" width="47.312" height="3.214" rx="1.607" fill="#242A45"/><rect opacity=".25" x="251.573" y="102.672" width="47.312" height="3.214" rx="1.607" fill="#242A45"/><rect opacity=".25" x="251.573" y="113.387" width="47.312" height="3.214" rx="1.607" fill="#242A45"/><rect opacity=".25" x="251.573" y="131.601" width="47.312" height="3.214" rx="1.607" fill="#242A45"/><rect opacity=".25" x="251.573" y="142.315" width="47.312" height="3.214" rx="1.607" fill="#242A45"/><rect opacity=".25" x="251.573" y="153.03" width="47.312" height="3.214" rx="1.607" fill="#242A45"/><rect opacity=".25" x="124.153" y="97.315" width="34.409" height="3.214" rx="1.607" fill="#242A45"/><ellipse cx="107.507" cy="125.744" rx="8.623" ry="8.5" fill="#6AC6D6"/><rect opacity=".5" x="124.214" y="120.431" width="64.671" height="3.188" rx="1.594" fill="#242A45"/><rect opacity=".25" x="124.214" y="127.869" width="34.491" height="3.188" rx="1.594" fill="#242A45"/><ellipse cx="107.507" cy="155.744" rx="8.623" ry="8.5" fill="#A47ED4"/><rect opacity=".5" x="124.214" y="150.431" width="64.671" height="3.188" rx="1.594" fill="#242A45"/><rect opacity=".25" x="124.214" y="157.869" width="34.491" height="3.188" rx="1.594" fill="#242A45"/><ellipse cx="107.507" cy="185.744" rx="8.623" ry="8.5" fill="#EC7878"/><rect opacity=".5" x="124.214" y="180.431" width="64.671" height="3.188" rx="1.594" fill="#242A45"/><rect opacity=".25" x="124.214" y="187.869" width="34.491" height="3.188" rx="1.594" fill="#242A45"/><defs><linearGradient id="b" x1="495.691" y1="115.071" x2="313.665" y2="-159.33" gradientUnits="userSpaceOnUse"><stop stop-color="#151515"/><stop offset="1" stop-color="#3D3D3D"/></linearGradient><filter id="a" x="0" y="0" width="390.769" height="286.488" filterUnits="userSpaceOnUse" color-interpolation-filters="sRGB"><feFlood flood-opacity="0" result="BackgroundImageFix"/><feColorMatrix in="SourceAlpha" values="0 0 0 0 0 0 0 0 0 0 0 0 0 0 0 0 0 0 127 0" result="hardAlpha"/><feOffset dy="30"/><feGaussianBlur stdDeviation="20"/><feColorMatrix values="0 0 0 0 0.182433 0 0 0 0 0.230633 0 0 0 0 0.506058 0 0 0 0.20012 0"/><feBlend in2="BackgroundImageFix" result="effect1_dropShadow_2001_2"/><feBlend in="SourceGraphic" in2="effect1_dropShadow_2001_2" result="shape"/></filter></defs></svg>